<?xml version="1.0" standalone="no"?>
<!DOCTYPE svg PUBLIC "-//W3C//DTD SVG 20010904//EN"
 "http://www.w3.org/TR/2001/REC-SVG-20010904/DTD/svg10.dtd">
<svg version="1.0" xmlns="http://www.w3.org/2000/svg"
 width="6000.000000pt" height="3594.000000pt" viewBox="0 0 6000.000000 3594.000000"
 preserveAspectRatio="xMidYMid meet">

<g transform="translate(0.000000,3594.000000) scale(0.100000,-0.100000)"
fill="#000000" stroke="none">
<path d="M38320 35933 c-532 -40 -1025 -272 -1342 -629 -148 -168 -274 -388
-343 -599 -30 -90 -85 -327 -85 -363 0 -6 21 -18 48 -26 82 -24 261 -95 335
-132 95 -48 124 -70 143 -106 34 -66 36 -137 14 -552 -11 -221 -24 -488 -28
-595 l-7 -194 -495 -146 c-564 -167 -507 -136 -509 -281 -2 -181 32 -328 91
-395 65 -75 154 -106 403 -140 265 -37 511 -76 522 -84 7 -4 13 -338 18 -968
l7 -963 -128 -1 c-560 -4 -1234 -15 -1239 -21 -4 -4 -12 -298 -18 -653 l-11
-646 -55 -33 c-172 -104 -383 -189 -936 -381 -847 -293 -1249 -454 -1770 -710
-1640 -805 -3104 -2095 -4378 -3857 -1893 -2617 -2782 -6316 -2351 -9783 178
-1434 577 -2784 1178 -3985 224 -447 609 -1152 819 -1500 336 -557 754 -1115
1237 -1655 194 -217 754 -775 975 -971 1201 -1067 2541 -1883 3968 -2418 984
-369 1978 -594 3007 -681 589 -49 1272 -46 1920 10 1998 173 3833 808 5460
1890 1058 703 1995 1575 2811 2615 552 704 1068 1526 1465 2334 51 105 92 191
90 193 -1 2 -50 -18 -107 -43 -392 -174 -863 -337 -1247 -433 -132 -33 -349
-81 -366 -81 -2 0 -46 -57 -97 -127 -1389 -1916 -3288 -3317 -5364 -3960
-1490 -461 -3048 -538 -4605 -227 -1332 266 -2663 812 -3950 1622 -334 210
-739 490 -1065 736 -256 193 -682 630 -1001 1026 -1296 1610 -2106 3815 -2299
6260 -31 398 -36 526 -42 1010 -7 640 11 1095 68 1680 202 2095 833 4134 1804
5830 870 1520 1969 2728 3273 3599 1189 794 2550 1286 3982 1440 361 39 500
46 910 46 510 -1 817 -25 1280 -101 1803 -296 3518 -1202 5260 -2778 208 -188
773 -753 951 -951 756 -841 1367 -1715 1843 -2636 l83 -160 289 331 c159 182
291 336 292 341 5 12 -186 357 -325 587 -437 729 -945 1405 -1591 2117 -183
202 -801 819 -992 991 -905 815 -1813 1446 -2770 1925 -878 439 -1727 722
-2627 874 -114 20 -212 37 -218 38 -5 2 31 14 80 26 134 33 225 36 417 12 92
-12 182 -21 199 -21 l32 0 -6 143 c-4 78 -7 345 -7 594 0 421 -1 452 -17 457
-48 14 -295 28 -648 36 -397 10 -478 16 -564 45 -67 22 -89 49 -106 131 -41
197 -55 520 -62 1412 -6 750 -5 773 13 788 48 38 280 187 374 241 620 356
1773 878 2605 1181 1913 697 3794 1023 5310 921 838 -56 1614 -248 2207 -545
797 -399 1400 -1039 1656 -1754 46 -131 72 -213 68 -217 -2 -2 -75 10 -162 26
-844 162 -1389 171 -1815 31 -385 -126 -658 -376 -853 -780 -258 -535 -284
-1078 -71 -1501 106 -210 309 -435 515 -572 263 -174 578 -286 915 -327 131
-16 420 -14 560 5 390 51 758 200 1060 429 100 75 288 257 368 356 266 329
464 796 523 1235 21 155 23 461 5 610 -76 621 -366 1265 -835 1851 -297 370
-608 644 -1011 888 -1159 700 -2855 962 -4910 755 -1415 -142 -2986 -518
-4267 -1023 -762 -300 -1700 -719 -2110 -942 -64 -35 -120 -64 -123 -64 -3 0
-5 134 -5 298 0 167 -7 399 -16 528 -23 343 -11 396 110 485 l39 29 206 0
c113 0 212 4 218 8 25 16 -23 298 -81 475 -174 531 -578 925 -1141 1113 -269
90 -577 128 -855 107z"/>
<path d="M21860 27283 c-337 -22 -602 -56 -868 -108 -1021 -203 -2002 -674
-2941 -1413 -339 -267 -610 -510 -966 -867 -664 -665 -1206 -1317 -2062 -2480
-153 -209 -333 -452 -399 -540 -132 -176 -223 -304 -332 -467 -82 -123 -46
-107 -312 -134 -85 -8 -333 -35 -550 -59 -521 -58 -706 -69 -1080 -62 -310 6
-451 18 -655 57 -516 99 -830 259 -1083 551 -136 156 -218 314 -254 489 -52
250 19 616 186 957 133 272 280 477 542 760 l94 102 -37 10 c-44 12 -45 12
-173 -95 -127 -105 -286 -260 -395 -384 -377 -430 -570 -788 -657 -1223 -32
-158 -32 -425 0 -575 70 -326 190 -557 404 -778 276 -285 681 -529 1083 -653
350 -108 835 -150 1723 -151 193 0 352 -2 352 -4 0 -3 -56 -90 -123 -193 -663
-1011 -1277 -2048 -1779 -3003 -163 -310 -710 -1401 -864 -1722 -252 -528
-510 -1094 -596 -1308 -169 -423 -373 -1149 -538 -1916 -54 -253 -70 -378 -70
-559 0 -382 102 -689 332 -999 207 -278 451 -478 798 -655 l165 -83 80 5 c115
8 184 29 320 97 340 169 844 640 1365 1275 132 161 468 606 722 955 98 136
201 264 277 345 67 71 121 132 121 137 0 4 -71 8 -157 8 l-158 0 -205 -207
c-113 -115 -303 -311 -421 -438 -625 -666 -1115 -1073 -1557 -1294 -219 -108
-441 -156 -645 -137 l-77 8 0 125 c0 69 7 173 16 232 58 399 276 1020 642
1827 55 120 139 311 187 424 999 2340 2294 4737 3718 6885 121 182 221 332
223 334 2 2 131 25 286 52 156 26 497 86 758 133 2158 386 3474 536 4695 536
1440 -1 2458 -240 3115 -734 194 -146 390 -367 509 -574 102 -179 188 -414
177 -489 -5 -42 -5 -42 32 -50 20 -4 66 -7 100 -6 80 2 168 42 247 115 48 44
66 72 140 222 174 353 216 568 186 953 -27 355 -97 638 -220 898 -100 210
-192 344 -346 504 -740 769 -2175 964 -4415 600 -731 -118 -1330 -246 -2650
-565 -844 -204 -1080 -259 -1320 -309 -191 -39 -411 -77 -417 -71 -5 5 849
1145 1084 1447 465 598 835 1028 1233 1433 1005 1022 2036 1672 3315 2089 469
153 815 222 1175 234 336 11 606 -34 857 -144 l102 -45 51 28 c27 15 50 31 50
35 0 12 -158 156 -235 214 -314 236 -711 371 -1225 415 -103 9 -566 11 -680 3z"/>
<path d="M54215 25793 c-16 -2 -68 -11 -113 -19 -251 -45 -565 -207 -892 -460
-130 -100 -807 -769 -1076 -1064 -649 -709 -1130 -1300 -1763 -2163 -1080
-1473 -1994 -2883 -2738 -4227 -929 -1677 -1782 -3400 -2088 -4215 -131 -348
-286 -827 -346 -1068 l-22 -88 -211 -188 c-477 -424 -672 -586 -1001 -832
-478 -358 -825 -583 -1220 -790 -82 -44 -151 -79 -154 -79 -8 0 9 216 24 304
29 161 81 348 149 531 267 720 438 1070 755 1553 104 158 145 246 161 346 18
115 -4 196 -85 306 -123 166 -141 181 -435 362 -356 219 -392 234 -485 208
-38 -11 -97 -60 -378 -314 -1635 -1479 -2660 -2350 -2946 -2503 -59 -31 -161
-34 -161 -4 0 67 133 365 247 553 231 380 629 862 1138 1377 763 772 1378
1252 1760 1374 106 34 182 47 279 47 91 0 402 -42 486 -66 126 -36 220 -116
261 -222 30 -79 37 -215 14 -302 -28 -108 -26 -122 19 -144 35 -17 40 -18 71
-3 76 36 145 279 145 512 0 233 -58 356 -294 624 -313 357 -722 648 -1021 727
-145 38 -371 45 -540 16 -617 -106 -1318 -556 -2132 -1370 -782 -781 -1361
-1698 -1628 -2577 -130 -429 -134 -829 -11 -1200 18 -55 36 -116 40 -136 15
-87 188 -305 359 -455 86 -76 204 -134 271 -134 122 0 181 40 611 409 729 626
1511 1363 2203 2076 l263 270 -67 -110 c-141 -234 -252 -496 -392 -925 -98
-298 -151 -530 -202 -885 -29 -200 -25 -369 11 -441 29 -60 93 -109 514 -394
244 -166 311 -207 362 -221 193 -54 256 -37 548 143 94 58 287 174 430 258
595 351 1011 646 1450 1031 152 134 522 499 621 614 l69 80 1 -240 c1 -197 5
-261 22 -355 25 -135 111 -444 146 -523 28 -65 93 -162 130 -196 14 -14 26
-30 26 -36 0 -15 208 -225 375 -378 198 -181 346 -283 590 -408 106 -53 116
-56 231 -69 95 -10 135 -10 194 0 295 47 893 349 1365 689 389 280 747 584
1044 885 63 64 115 116 116 116 1 0 5 -80 8 -177 6 -193 24 -301 78 -471 17
-52 37 -119 45 -150 25 -93 111 -212 267 -367 169 -168 245 -215 358 -223 91
-6 146 20 302 145 642 514 1853 1641 2591 2413 l187 195 -62 -105 c-145 -246
-249 -487 -384 -897 -108 -325 -158 -542 -211 -898 -37 -257 -28 -416 28 -498
23 -32 153 -126 530 -381 l278 -187 97 -21 c83 -18 107 -20 160 -11 86 15 138
41 389 195 120 74 307 186 414 248 988 574 1782 1255 2361 2025 103 136 259
362 259 375 0 6 -50 10 -133 10 l-133 0 -165 -148 c-1015 -916 -1667 -1399
-2450 -1815 -59 -32 -110 -57 -114 -57 -11 0 2 180 20 286 40 233 84 377 234
766 230 599 358 854 663 1319 134 206 170 293 172 419 1 107 -16 154 -96 262
-106 143 -139 171 -358 307 -310 194 -413 250 -465 257 -96 14 -98 12 -531
-378 -1404 -1269 -2354 -2085 -2738 -2351 -151 -105 -181 -119 -249 -115 l-52
3 3 35 c7 93 161 413 299 625 143 219 440 595 712 900 158 178 702 721 892
891 467 418 809 673 1071 799 243 116 387 135 693 91 191 -28 266 -46 329 -78
64 -33 131 -103 162 -171 27 -58 29 -70 29 -187 0 -95 -4 -138 -18 -177 -22
-63 -13 -86 38 -103 67 -22 113 25 155 157 49 158 66 411 35 542 -36 153 -156
323 -405 572 -180 181 -304 284 -477 397 -263 171 -451 232 -716 232 -548 0
-1195 -327 -1942 -981 -177 -155 -560 -534 -713 -704 -459 -513 -847 -1089
-1089 -1618 -68 -147 -175 -413 -212 -528 -26 -79 -27 -80 -281 -280 -665
-523 -1119 -828 -1550 -1043 -390 -194 -693 -288 -1026 -317 -117 -11 -287 -2
-361 17 -26 7 -30 27 -38 209 -14 286 30 645 116 950 46 160 234 715 332 975
110 293 546 1273 783 1760 l105 215 157 110 c1072 747 2074 1619 3091 2690
1078 1134 1866 2129 2796 3530 606 913 1051 1669 1459 2480 169 335 216 451
241 599 30 179 18 345 -45 591 -73 286 -196 570 -329 760 -39 55 -100 144
-137 198 -36 53 -90 118 -118 145 -119 109 -276 157 -441 135z m-23 -1490 c10
-9 18 -26 18 -38 0 -23 -84 -259 -195 -545 -471 -1215 -1019 -2258 -1863
-3545 -678 -1034 -1496 -2073 -2431 -3090 -358 -390 -1661 -1671 -1791 -1762
-46 -32 614 1218 1038 1967 1426 2521 2891 4609 4431 6315 573 635 720 764
793 698z"/>
<path d="M8800 19854 c-385 -29 -671 -131 -826 -296 -146 -155 -269 -422 -374
-815 -91 -340 -178 -832 -154 -871 33 -52 201 -60 334 -17 166 53 489 233 747
416 394 280 939 736 1126 944 152 168 200 261 177 344 -29 110 -254 220 -548
270 -121 20 -368 33 -482 25z"/>
<path d="M38751 17750 l-32 -51 36 -89 c75 -186 105 -367 105 -623 0 -351 -60
-638 -216 -1040 -174 -447 -505 -1068 -792 -1486 -351 -512 -848 -1093 -1477
-1730 -316 -320 -763 -737 -751 -700 3 8 19 61 36 119 132 447 404 1202 571
1587 145 334 374 767 569 1073 94 148 127 219 147 315 19 95 8 183 -32 250
-44 75 -143 201 -194 247 -47 42 -241 159 -371 223 -36 18 -80 44 -97 59 -17
14 -36 26 -42 26 -6 0 -77 41 -157 90 -129 81 -149 90 -192 90 -74 -1 -89 -19
-94 -115 -6 -91 -35 -185 -105 -338 -74 -162 -238 -460 -336 -612 -50 -77
-144 -234 -210 -350 -66 -115 -178 -300 -250 -410 -72 -110 -188 -297 -258
-415 -287 -483 -441 -724 -664 -1035 -198 -277 -521 -693 -769 -990 -162 -194
-667 -767 -672 -762 -5 5 216 944 246 1043 88 300 279 854 423 1229 208 542
437 998 744 1486 106 168 137 261 131 386 -5 97 -20 135 -91 233 -85 116 -139
170 -211 211 -155 89 -314 184 -368 221 -31 21 -67 38 -80 38 -13 0 -84 41
-158 90 -126 84 -138 90 -186 90 -63 0 -76 -14 -94 -95 -29 -136 -93 -344
-138 -444 -27 -60 -94 -184 -149 -277 -55 -93 -114 -196 -131 -229 -32 -63
-122 -191 -166 -236 -55 -57 -335 -591 -521 -994 -125 -272 -287 -653 -360
-845 -204 -539 -343 -1105 -430 -1753 -14 -103 -29 -207 -35 -230 -13 -56 -12
-135 1 -197 15 -72 102 -184 278 -361 179 -179 340 -324 446 -401 44 -32 107
-78 141 -104 67 -51 146 -85 214 -91 51 -5 161 18 229 48 72 31 301 171 301
183 0 6 17 22 38 36 64 43 353 339 453 465 107 134 170 221 444 605 186 262
488 671 492 667 1 -2 -6 -34 -17 -73 -10 -39 -25 -133 -34 -210 -9 -76 -27
-202 -41 -278 -14 -77 -25 -156 -25 -174 0 -19 -7 -71 -16 -115 -23 -110 -10
-207 38 -283 93 -150 517 -561 724 -703 43 -30 96 -69 116 -86 46 -39 163 -85
214 -85 66 0 168 27 235 61 105 53 263 149 284 174 11 13 41 40 66 62 491 411
1073 986 1614 1593 551 619 987 1210 1326 1798 122 212 357 684 456 918 493
1159 583 2137 260 2826 -77 164 -202 342 -330 466 l-54 54 -32 -52z"/>
<path d="M16376 17520 c-426 -67 -966 -403 -1112 -692 -54 -106 -68 -270 -38
-428 25 -134 188 -649 260 -820 l27 -65 -42 -81 c-119 -232 -448 -678 -836
-1129 -434 -506 -1122 -1222 -1548 -1609 l-87 -79 0 -154 0 -155 42 34 c277
218 671 581 1153 1063 715 714 1143 1196 1490 1680 l21 28 91 -129 c51 -71
141 -182 200 -248 59 -65 125 -138 146 -162 l39 -44 -28 -48 c-76 -133 -265
-403 -505 -722 -499 -665 -748 -1041 -983 -1478 -261 -485 -390 -836 -468
-1269 -17 -99 -23 -165 -23 -293 0 -272 -33 -237 642 -679 222 -146 306 -183
418 -185 89 -1 146 25 341 156 449 300 1080 786 1594 1225 l175 150 2 -66 c8
-231 42 -435 102 -607 17 -49 31 -97 31 -108 0 -27 62 -137 118 -210 69 -90
238 -257 309 -304 122 -83 213 -100 316 -62 129 48 1014 819 1797 1566 261
249 867 854 1070 1069 57 61 95 94 83 75 -189 -313 -277 -509 -422 -948 -139
-417 -228 -843 -238 -1138 -6 -169 6 -238 54 -294 31 -37 192 -152 543 -388
280 -189 315 -205 455 -206 91 -1 165 24 274 91 93 57 493 297 711 426 400
236 855 562 1200 858 443 380 786 747 1096 1174 88 121 204 291 204 300 0 3
-61 5 -135 5 l-135 0 -192 -173 c-644 -578 -925 -809 -1390 -1144 -383 -277
-739 -498 -1056 -657 l-92 -46 0 71 c0 176 65 471 163 739 268 730 434 1075
762 1575 111 168 117 180 145 273 29 94 25 224 -7 288 -30 57 -131 191 -187
246 -58 58 -506 341 -641 404 -63 30 -126 30 -182 1 -23 -12 -266 -225 -540
-472 -1375 -1244 -2259 -1999 -2641 -2259 -128 -87 -132 -89 -200 -94 -38 -2
-72 0 -75 5 -8 12 41 154 91 269 186 421 676 1054 1318 1700 735 739 1365
1228 1735 1348 168 54 303 58 569 16 179 -28 213 -36 279 -67 103 -49 177
-145 202 -266 14 -63 5 -206 -16 -266 -20 -59 -19 -78 8 -95 48 -31 73 -30
111 6 85 77 149 415 117 616 -23 148 -63 228 -201 400 -287 359 -736 709
-1035 806 -241 77 -533 74 -820 -9 -416 -121 -913 -417 -1400 -835 -1033 -886
-1770 -1914 -2115 -2954 l-43 -128 -126 -105 c-336 -278 -962 -727 -1311 -940
-165 -100 -300 -173 -300 -162 0 26 67 270 110 400 79 241 167 452 290 694
347 687 603 1077 1001 1527 56 64 99 124 123 172 20 41 41 78 46 81 28 17 1
319 -40 445 -98 298 -323 552 -759 858 -226 159 -355 259 -459 357 l-102 97
50 55 c126 138 323 500 457 838 145 367 285 810 314 998 21 135 -11 226 -93
268 -47 24 -179 33 -272 19z"/>
<path d="M55960 17010 l0 -190 275 0 275 0 0 -785 0 -785 220 0 220 0 0 785 0
785 275 0 275 0 0 190 0 190 -770 0 -770 0 0 -190z"/>
<path d="M57820 16225 l0 -975 215 0 215 0 0 612 c0 336 3 609 6 606 3 -3 121
-242 263 -530 l258 -523 130 -3 129 -3 265 533 264 533 3 -612 2 -613 215 0
215 0 0 975 0 975 -293 0 -293 0 -249 -530 c-137 -291 -252 -530 -256 -530 -3
0 -118 239 -255 530 l-248 530 -293 0 -293 0 0 -975z"/>
<path d="M6256 16983 c-60 -49 -552 -566 -632 -663 -127 -157 -677 -976 -861
-1285 -275 -459 -634 -1152 -798 -1535 -243 -572 -450 -1228 -580 -1840 -14
-69 -35 -141 -45 -160 -17 -32 -28 -80 -47 -200 -3 -20 0 -56 7 -80 18 -67
146 -187 380 -355 107 -77 260 -191 340 -254 135 -107 150 -116 218 -132 118
-28 171 -32 247 -16 143 30 185 57 940 596 764 546 950 683 1190 875 374 300
659 559 1085 986 l345 345 -224 3 -224 2 -38 -32 c-20 -18 -97 -89 -171 -157
-504 -469 -1197 -1007 -1713 -1329 -282 -175 -645 -375 -645 -353 0 21 155
526 239 780 206 619 386 1072 676 1701 371 805 643 1278 1053 1829 170 229
225 351 225 501 0 93 -20 146 -97 264 -76 117 -133 176 -219 227 -40 23 -148
93 -240 156 -92 62 -173 113 -180 113 -7 0 -17 4 -22 9 -16 13 -106 41 -136
41 -17 0 -45 -15 -73 -37z"/>
<path d="M327 11097 c-82 -339 -138 -684 -169 -1047 -16 -189 -16 -744 0 -930
37 -417 107 -791 218 -1166 665 -2258 2731 -3949 5270 -4313 410 -59 495 -64
1284 -68 1049 -7 1261 4 1905 97 1407 203 1524 222 2064 344 1343 304 3085
855 6021 1906 371 133 959 343 1305 467 347 123 756 270 910 325 680 244 1140
377 1746 507 690 147 1291 214 1939 214 482 1 822 -26 1245 -98 1428 -242
2729 -897 4010 -2019 587 -514 1258 -1248 1723 -1885 34 -47 62 -81 62 -78 0
13 -230 467 -306 605 -754 1365 -1749 2431 -2944 3155 -942 571 -2002 926
-3135 1052 -364 40 -541 49 -955 49 -702 1 -1295 -62 -2000 -210 -628 -132
-1185 -303 -1901 -585 -152 -59 -456 -169 -675 -243 -472 -159 -797 -275
-1869 -666 -1937 -708 -2765 -993 -3715 -1279 -1610 -485 -3002 -771 -4275
-876 -410 -33 -567 -39 -1040 -40 -527 0 -641 7 -1015 61 -1471 213 -2862 911
-3910 1964 -909 913 -1497 2027 -1704 3231 -85 492 -103 1063 -51 1563 9 82
14 150 12 152 -2 2 -24 -83 -50 -189z"/>
<path d="M22995 5914 c-843 -32 -1595 -141 -2400 -349 -838 -216 -1563 -487
-2435 -910 -173 -84 -450 -212 -615 -283 -380 -165 -790 -352 -1720 -782
-2310 -1070 -3344 -1509 -4555 -1938 -1544 -546 -3077 -903 -4270 -993 -204
-16 -791 -16 -1005 0 -1639 118 -3112 682 -4250 1627 -168 140 -531 503 -669
669 -495 596 -809 1238 -956 1950 -28 136 -59 369 -66 499 -4 64 -10 116 -14
116 -4 0 -12 -57 -19 -127 -101 -1095 186 -2125 837 -3003 145 -195 269 -337
467 -535 198 -199 361 -341 580 -505 1335 -1000 3205 -1485 5065 -1315 310 29
1322 163 1630 216 295 51 391 74 1510 363 687 177 990 269 1615 491 1193 424
2635 1033 5015 2118 2711 1235 2584 1179 3105 1367 1009 363 1904 560 2870
632 212 15 847 15 1055 -1 956 -72 1780 -264 2680 -626 1171 -470 2105 -1028
2974 -1774 64 -56 119 -101 122 -101 8 0 -47 83 -117 175 -318 424 -956 1049
-1559 1530 -556 443 -919 670 -1403 874 -781 330 -1652 532 -2567 596 -214 14
-733 26 -905 19z"/>
</g>
</svg>
