<?xml version="1.0" encoding="UTF-8"?>
<!DOCTYPE svg PUBLIC "-//W3C//DTD SVG 1.1//EN" "http://www.w3.org/Graphics/SVG/1.1/DTD/svg11.dtd">
<svg xmlns="http://www.w3.org/2000/svg" version="1.1" width="6000px" height="3594px" style="shape-rendering:geometricPrecision; text-rendering:geometricPrecision; image-rendering:optimizeQuality; fill-rule:evenodd; clip-rule:evenodd" xmlns:xlink="http://www.w3.org/1999/xlink">
<g><path style="opacity:0.992" fill="#2a2928" d="M 2852.5,1576.5 C 2853.67,1575.49 2854.34,1574.15 2854.5,1572.5C 2876.15,1528.21 2902.15,1486.55 2932.5,1447.5C 2979.51,1385.99 3034.51,1332.82 3097.5,1288C 3114.57,1276.93 3131.91,1266.26 3149.5,1256C 3167.89,1246.47 3186.56,1237.47 3205.5,1229C 3241.61,1215.07 3277.95,1201.74 3314.5,1189C 3321.59,1186.15 3328.25,1182.65 3334.5,1178.5C 3336.3,1152.54 3336.97,1126.54 3336.5,1100.5C 3363.5,1100.5 3390.5,1100.5 3417.5,1100.5C 3417.83,1062.83 3417.5,1025.16 3416.5,987.5C 3402.92,984.926 3389.25,982.76 3375.5,981C 3366.31,980.137 3360.48,975.304 3358,966.5C 3356.71,958.219 3356.21,949.886 3356.5,941.5C 3375.91,936.147 3395.24,930.48 3414.5,924.5C 3415.31,922.577 3415.81,920.577 3416,918.5C 3416.65,898.659 3417.49,878.825 3418.5,859C 3418.47,854.444 3417.97,849.944 3417,845.5C 3407.9,839.535 3398.07,835.035 3387.5,832C 3386.37,827.525 3386.53,823.025 3388,818.5C 3396.91,783.918 3417.74,759.418 3450.5,745C 3489.56,730.335 3527.56,732.668 3564.5,752C 3596.11,771.776 3612.78,800.276 3614.5,837.5C 3605.83,837.334 3597.16,837.5 3588.5,838C 3581.8,842.231 3578.8,848.397 3579.5,856.5C 3580.93,875.8 3581.93,895.134 3582.5,914.5C 3663.47,871.893 3748.47,839.393 3837.5,817C 3923.98,795.519 4011.64,787.852 4100.5,794C 4152.02,797.73 4200.68,811.397 4246.5,835C 4298.51,865.69 4335.01,909.19 4356,965.5C 4373.03,1017.33 4366.03,1065.33 4335,1109.5C 4304.29,1146.42 4264.79,1162.92 4216.5,1159C 4180.15,1155.93 4151.98,1139.43 4132,1109.5C 4121.84,1089.61 4118.84,1068.61 4123,1046.5C 4127.48,1026.35 4136.15,1008.35 4149,992.5C 4164.08,976.542 4182.58,967.375 4204.5,965C 4236.02,962.65 4267.19,965.15 4298,972.5C 4298.83,972.167 4299.67,971.833 4300.5,971.5C 4291.09,940.454 4274.42,914.12 4250.5,892.5C 4215.66,862.42 4175.33,842.92 4129.5,834C 4072.07,823.094 4014.41,821.76 3956.5,830C 3882.33,840.505 3810.33,859.172 3740.5,886C 3694.12,904.211 3649.12,924.877 3605.5,948C 3596.9,952.881 3588.74,958.381 3581,964.5C 3579.3,1007.9 3580.3,1051.23 3584,1094.5C 3584.67,1095.83 3585.33,1097.17 3586,1098.5C 3589.89,1100.52 3594.06,1101.68 3598.5,1102C 3619.77,1102.54 3640.93,1103.71 3662,1105.5C 3662.83,1129.51 3662.67,1153.51 3661.5,1177.5C 3653.54,1176.34 3645.54,1175.34 3637.5,1174.5C 3632.75,1174.88 3628.09,1175.72 3623.5,1177C 3698.86,1189.22 3768.86,1215.22 3833.5,1255C 3933.81,1318.53 4017.64,1399.03 4085,1496.5C 4098.7,1517.24 4111.37,1538.57 4123,1560.5C 4123.67,1561.83 4123.67,1563.17 4123,1564.5C 4112.03,1576.64 4101.19,1588.98 4090.5,1601.5C 4089.5,1602.83 4088.5,1602.83 4087.5,1601.5C 4046.75,1521.2 3993.09,1450.37 3926.5,1389C 3878.68,1344.52 3826.35,1306.18 3769.5,1274C 3619.38,1195.62 3467.05,1191.28 3312.5,1261C 3228.47,1302.04 3158.3,1359.87 3102,1434.5C 3034.49,1526.93 2988.16,1629.26 2963,1741.5C 2934.79,1867.86 2933.46,1994.53 2959,2121.5C 2977.96,2212.33 3014.29,2295 3068,2369.5C 3087.45,2394.21 3108.61,2417.38 3131.5,2439C 3197.11,2489.82 3269.11,2529.82 3347.5,2559C 3537.6,2623.32 3714.27,2597.65 3877.5,2482C 3935.38,2438.79 3985.05,2387.79 4026.5,2329C 4062.22,2321.59 4096.55,2310.09 4129.5,2294.5C 4129.83,2294.83 4130.17,2295.17 4130.5,2295.5C 4070.12,2425.06 3980.12,2529.22 3860.5,2608C 3710.01,2700.2 3547.34,2732.2 3372.5,2704C 3267.81,2683.3 3172.48,2641.97 3086.5,2580C 3004.79,2520.97 2937.95,2448.47 2886,2362.5C 2871.28,2335.06 2856.62,2307.73 2842,2280.5C 2786.43,2161.14 2762.43,2035.14 2770,1902.5C 2775.11,1806.61 2795.11,1714.27 2830,1625.5C 2837.36,1608.94 2844.86,1592.61 2852.5,1576.5 Z"/></g>
<g><path style="opacity:0.989" fill="#2a2928" d="M 2520.5,1245.5 C 2545.17,1244.1 2569.5,1246.27 2593.5,1252C 2613.48,1257.81 2630.81,1267.98 2645.5,1282.5C 2646.71,1283.72 2646.71,1284.89 2645.5,1286C 2643.46,1286.45 2641.63,1287.29 2640,1288.5C 2618.89,1278.84 2596.72,1275.34 2573.5,1278C 2541.72,1282.28 2511.05,1290.61 2481.5,1303C 2417.1,1330.08 2360.94,1368.92 2313,1419.5C 2293.61,1441.22 2274.61,1463.22 2256,1485.5C 2231.46,1517.39 2207.3,1549.56 2183.5,1582C 2194.21,1580.99 2204.88,1579.33 2215.5,1577C 2272.31,1562.88 2329.31,1549.55 2386.5,1537C 2435.98,1526.41 2485.98,1519.74 2536.5,1517C 2569.94,1515.24 2602.94,1518.24 2635.5,1526C 2706.26,1546.95 2739.42,1594.45 2735,1668.5C 2733.22,1685.92 2727.05,1701.59 2716.5,1715.5C 2709.47,1722.51 2701.14,1724.84 2691.5,1722.5C 2691.36,1720.74 2691.69,1719.07 2692.5,1717.5C 2682.69,1683.84 2662.03,1659.01 2630.5,1643C 2599.74,1628.64 2567.4,1619.98 2533.5,1617C 2478.78,1612.23 2424.12,1612.9 2369.5,1619C 2336.06,1622.51 2302.73,1626.85 2269.5,1632C 2223.15,1639.89 2176.82,1647.89 2130.5,1656C 2017.63,1823.03 1925.46,2001.2 1854,2190.5C 1850.4,2202.7 1848.24,2215.2 1847.5,2228C 1847.58,2230.63 1848.25,2232.96 1849.5,2235C 1862.35,2236.23 1874.69,2234.23 1886.5,2229C 1907.75,2218.08 1927.09,2204.42 1944.5,2188C 1965.78,2167.05 1986.78,2145.72 2007.5,2124C 2006.83,2123.33 2006.17,2123.33 2005.5,2124C 2002.83,2126.33 2000.17,2128.67 1997.5,2131C 1996.83,2131.67 1996.17,2131.67 1995.5,2131C 1996.15,2124.22 1996.82,2117.39 1997.5,2110.5C 2041.31,2070.2 2081.81,2026.86 2119,1980.5C 2127.52,1968.78 2135.52,1956.78 2143,1944.5C 2143.32,1939.12 2141.99,1934.12 2139,1929.5C 2135.95,1917.37 2132.28,1905.37 2128,1893.5C 2125.24,1881.62 2126.57,1870.29 2132,1859.5C 2149.58,1839.12 2171.75,1826.62 2198.5,1822C 2214.75,1820.26 2221.25,1827.42 2218,1843.5C 2209.21,1877.24 2196.54,1909.24 2180,1939.5C 2176.93,1943.61 2173.77,1947.61 2170.5,1951.5C 2174.66,1956.49 2179.32,1960.99 2184.5,1965C 2202.73,1975.89 2219.23,1989.05 2234,2004.5C 2246.51,2019.2 2251.84,2036.2 2250,2055.5C 2244.79,2065.24 2238.12,2073.91 2230,2081.5C 2196.85,2123.81 2172.68,2170.81 2157.5,2222.5C 2157.83,2222.83 2158.17,2223.17 2158.5,2223.5C 2193.74,2203.08 2226.91,2179.75 2258,2153.5C 2273.05,2108.48 2295.72,2067.82 2326,2031.5C 2353.27,1999.24 2384.1,1970.74 2418.5,1946C 2436.02,1934.16 2455.02,1925.49 2475.5,1920C 2497.79,1914.73 2518.46,1918.4 2537.5,1931C 2558.43,1944.93 2575.6,1962.43 2589,1983.5C 2592.85,1998.89 2591.85,2013.89 2586,2028.5C 2581.64,2032.79 2577.8,2032.45 2574.5,2027.5C 2579.85,2015.75 2578.18,2005.25 2569.5,1996C 2544.91,1983.92 2520.91,1984.92 2497.5,1999C 2481.98,2008.85 2467.32,2019.85 2453.5,2032C 2416.84,2064.32 2383.68,2099.82 2354,2138.5C 2343.77,2152.63 2335.94,2167.96 2330.5,2184.5C 2334.35,2185.75 2338.02,2185.25 2341.5,2183C 2356.53,2172.15 2371.19,2160.82 2385.5,2149C 2435.45,2106.05 2484.79,2062.38 2533.5,2018C 2537.17,2017.33 2540.83,2017.33 2544.5,2018C 2556.33,2024.75 2568,2031.75 2579.5,2039C 2588.24,2046.17 2593.91,2055.17 2596.5,2066C 2595.57,2070.55 2594.4,2075.05 2593,2079.5C 2575.75,2104.46 2561.42,2131.13 2550,2159.5C 2546.57,2170.14 2542.57,2180.47 2538,2190.5C 2534.9,2202.69 2532.4,2215.02 2530.5,2227.5C 2530.83,2228.5 2531.17,2229.5 2531.5,2230.5C 2575.39,2207.05 2616.05,2178.88 2653.5,2146C 2666.02,2134.9 2678.36,2123.57 2690.5,2112C 2696.49,2111.5 2702.49,2111.33 2708.5,2111.5C 2705.63,2116.9 2702.46,2122.24 2699,2127.5C 2664.9,2173.08 2623.74,2211.25 2575.5,2242C 2556.83,2253.33 2538.17,2264.67 2519.5,2276C 2510.04,2282.01 2500.04,2283.01 2489.5,2279C 2477.5,2271 2465.5,2263 2453.5,2255C 2448.35,2251.51 2443.85,2247.35 2440,2242.5C 2439.33,2233.5 2439.33,2224.5 2440,2215.5C 2446.22,2178.63 2457.55,2143.63 2474,2110.5C 2421.79,2165.37 2366.29,2216.87 2307.5,2265C 2301,2268.37 2294.66,2268.04 2288.5,2264C 2271.36,2252.87 2260.52,2237.37 2256,2217.5C 2254.07,2206.93 2253.07,2196.26 2253,2185.5C 2219.04,2215.38 2183.54,2243.22 2146.5,2269C 2141.88,2272.14 2136.88,2274.48 2131.5,2276C 2123.88,2276.24 2116.88,2274.24 2110.5,2270C 2098.99,2262.08 2087.33,2254.41 2075.5,2247C 2072.67,2244.17 2069.83,2241.33 2067,2238.5C 2064.5,2219.79 2066.17,2201.46 2072,2183.5C 2080.06,2160.65 2090.06,2138.65 2102,2117.5C 2118.35,2090.16 2136.68,2064.16 2157,2039.5C 2165.66,2026.84 2174.33,2014.18 2183,2001.5C 2183.67,2000.5 2183.67,1999.5 2183,1998.5C 2172.98,1988.8 2164.15,1978.13 2156.5,1966.5C 2115.52,2019.31 2069.86,2067.81 2019.5,2112C 2025.86,2112.17 2032.19,2112.67 2038.5,2113.5C 2033.89,2119.62 2028.72,2125.28 2023,2130.5C 1999.51,2164.15 1974.34,2196.49 1947.5,2227.5C 1932.66,2243.5 1916.32,2258 1898.5,2271C 1890.05,2276.73 1880.71,2279.89 1870.5,2280.5C 1836.01,2268.84 1811.17,2246.5 1796,2213.5C 1790.07,2195.92 1788.4,2177.92 1791,2159.5C 1800.05,2115.36 1811.72,2072.02 1826,2029.5C 1855.4,1964.36 1886.73,1900.03 1920,1836.5C 1952.08,1777.84 1986.58,1720.68 2023.5,1665C 1997.82,1664.73 1972.16,1664.07 1946.5,1663C 1896.97,1660.98 1856.8,1640.82 1826,1602.5C 1810.85,1574.96 1808.51,1546.29 1819,1516.5C 1833.49,1483.32 1855.49,1455.99 1885,1434.5C 1886.92,1434.94 1888.75,1435.6 1890.5,1436.5C 1868.07,1457.38 1852.23,1482.38 1843,1511.5C 1836.65,1533.06 1840.32,1552.72 1854,1570.5C 1870.69,1589.1 1891.53,1600.27 1916.5,1604C 1943.03,1608.55 1969.69,1609.55 1996.5,1607C 2020.5,1604.33 2044.5,1601.67 2068.5,1599C 2109.33,1539.18 2153.16,1481.68 2200,1426.5C 2229.89,1392.61 2262.39,1361.45 2297.5,1333C 2340.52,1299.66 2388.19,1274.99 2440.5,1259C 2466.89,1251.99 2493.55,1247.49 2520.5,1245.5 Z"/></g>
<g><path style="opacity:0.989" fill="#2a2928" d="M 4342.5,2128.5 C 4341.5,2128.83 4340.83,2129.5 4340.5,2130.5C 4295.65,2176.84 4248.32,2220.68 4198.5,2262C 4189.52,2269.18 4180.52,2269.18 4171.5,2262C 4164.3,2255.14 4157.47,2247.97 4151,2240.5C 4142.7,2223.15 4138.7,2204.82 4139,2185.5C 4103.89,2222.95 4063.39,2253.11 4017.5,2276C 4007.24,2281.11 3996.41,2284.27 3985,2285.5C 3980.12,2284.92 3975.29,2284.09 3970.5,2283C 3951.54,2274.36 3934.88,2262.52 3920.5,2247.5C 3913.8,2240.97 3907.64,2233.97 3902,2226.5C 3891.42,2204.06 3887.09,2180.39 3889,2155.5C 3857.71,2191.13 3821.88,2221.29 3781.5,2246C 3764.04,2256.15 3746.7,2266.48 3729.5,2277C 3721.62,2281.62 3713.29,2282.62 3704.5,2280C 3688.66,2269.92 3673,2259.58 3657.5,2249C 3654.43,2246.57 3652.6,2243.41 3652,2239.5C 3651.26,2228.09 3651.93,2216.75 3654,2205.5C 3660.9,2172.4 3671.4,2141.07 3685.5,2111.5C 3634.81,2164.31 3581.48,2214.15 3525.5,2261C 3519.75,2266.44 3513.09,2268.1 3505.5,2266C 3492.25,2258.68 3481.75,2248.52 3474,2235.5C 3468.66,2220.97 3465.49,2205.97 3464.5,2190.5C 3466.76,2162.42 3474.43,2136.08 3487.5,2111.5C 3488.67,2110.49 3489.34,2109.15 3489.5,2107.5C 3494.79,2096.25 3500.63,2085.25 3507,2074.5C 3540.63,2023.54 3582.46,1980.37 3632.5,1945C 3649.45,1933.69 3667.79,1925.36 3687.5,1920C 3703.81,1916.12 3719.81,1917.12 3735.5,1923C 3761.7,1936.86 3783.2,1956.03 3800,1980.5C 3805.78,1996.71 3805.12,2012.71 3798,2028.5C 3794.95,2032.01 3791.62,2032.34 3788,2029.5C 3788.07,2024 3788.57,2018.5 3789.5,2013C 3789.35,2004.03 3785.35,1997.36 3777.5,1993C 3761.66,1988.15 3745.66,1987.15 3729.5,1990C 3717.7,1994.42 3706.7,2000.26 3696.5,2007.5C 3650.19,2043.64 3608.69,2084.64 3572,2130.5C 3565.3,2139.91 3559.14,2149.58 3553.5,2159.5C 3552.09,2159.97 3551.43,2160.97 3551.5,2162.5C 3548.13,2169.6 3545.13,2176.93 3542.5,2184.5C 3545.54,2185.66 3548.54,2185.5 3551.5,2184C 3555,2181.42 3558.66,2179.08 3562.5,2177C 3582.79,2161.04 3602.79,2144.71 3622.5,2128C 3663.83,2091.33 3705.17,2054.67 3746.5,2018C 3749.83,2017.33 3753.17,2017.33 3756.5,2018C 3768.17,2025 3779.83,2032 3791.5,2039C 3800.39,2046.29 3806.05,2055.46 3808.5,2066.5C 3808.02,2071.73 3806.86,2076.73 3805,2081.5C 3777.13,2120.85 3757.13,2164.19 3745,2211.5C 3744.43,2217.86 3744.09,2224.19 3744,2230.5C 3782.24,2209.94 3818.07,2185.77 3851.5,2158C 3865.95,2145.04 3880.45,2132.21 3895,2119.5C 3904.16,2085.68 3915.5,2052.68 3929,2020.5C 3981.98,1905.88 4041.81,1794.88 4108.5,1687.5C 4161.27,1605.58 4218.77,1527.25 4281,1452.5C 4304.57,1426.26 4328.74,1400.76 4353.5,1376C 4369.09,1361.53 4386.42,1349.53 4405.5,1340C 4414.55,1336.62 4423.89,1334.46 4433.5,1333.5C 4443.23,1333.73 4451.39,1337.4 4458,1344.5C 4473.57,1363.92 4484.57,1385.58 4491,1409.5C 4494.82,1426.05 4494.16,1442.38 4489,1458.5C 4404.75,1628.09 4292.92,1777.25 4153.5,1906C 4115.25,1939.54 4075.42,1971.04 4034,2000.5C 4019.06,2032.71 4004.39,2065.05 3990,2097.5C 3978,2126.88 3968,2156.88 3960,2187.5C 3958.13,2198.93 3956.97,2210.43 3956.5,2222C 3956.59,2226.85 3956.92,2231.69 3957.5,2236.5C 3957.71,2237.99 3958.38,2239.16 3959.5,2240C 3982.46,2242.4 4004.46,2238.73 4025.5,2229C 4044.16,2220.97 4061.83,2211.31 4078.5,2200C 4101.55,2184.14 4123.88,2167.31 4145.5,2149.5C 4159.57,2109.41 4179.74,2072.74 4206,2039.5C 4233.98,2005.52 4265.48,1975.35 4300.5,1949C 4319.11,1935.86 4339.45,1926.2 4361.5,1920C 4386.06,1914.31 4408.39,1918.98 4428.5,1934C 4443.28,1945.28 4456.61,1958.11 4468.5,1972.5C 4472.11,1977.39 4474.95,1982.72 4477,1988.5C 4477.67,1997.17 4477.67,2005.83 4477,2014.5C 4475.9,2019.37 4474.23,2024.04 4472,2028.5C 4469.42,2031.57 4466.25,2032.23 4462.5,2030.5C 4461.34,2027.46 4461.5,2024.46 4463,2021.5C 4464.89,2012.64 4463.22,2004.64 4458,1997.5C 4455.75,1995.62 4453.25,1994.12 4450.5,1993C 4433.94,1987.45 4417.28,1986.78 4400.5,1991C 4386.16,1997.35 4372.83,2005.35 4360.5,2015C 4312.92,2053.32 4271.08,2097.15 4235,2146.5C 4232.25,2151.67 4229.25,2156.67 4226,2161.5C 4222.25,2169.09 4219.08,2176.93 4216.5,2185C 4220.4,2185.74 4224.07,2185.07 4227.5,2183C 4239.26,2175.08 4250.59,2166.58 4261.5,2157.5C 4315,2111.5 4368,2065 4420.5,2018C 4423.83,2017.33 4427.17,2017.33 4430.5,2018C 4443.17,2025 4455.5,2032.5 4467.5,2040.5C 4471.57,2044.98 4475.41,2049.65 4479,2054.5C 4483.54,2063.12 4483.54,2071.79 4479,2080.5C 4449.52,2122.84 4429.18,2169.5 4418,2220.5C 4417.33,2223.83 4417.33,2227.17 4418,2230.5C 4455.93,2210.22 4491.43,2186.39 4524.5,2159C 4542.19,2143.3 4559.86,2127.64 4577.5,2112C 4583.16,2111.5 4588.82,2111.33 4594.5,2111.5C 4594.66,2112.87 4594.49,2114.21 4594,2115.5C 4561.91,2161.93 4522.41,2201.09 4475.5,2233C 4449.83,2249.17 4423.83,2264.84 4397.5,2280C 4390.07,2282.06 4382.74,2281.72 4375.5,2279C 4360.34,2268.92 4345.34,2258.58 4330.5,2248C 4328.88,2245.92 4327.38,2243.75 4326,2241.5C 4325.33,2233.83 4325.33,2226.17 4326,2218.5C 4332,2181.28 4343,2145.95 4359,2112.5C 4353.6,2118.06 4348.1,2123.4 4342.5,2128.5 Z M 4060.5,1949.5 C 4080.84,1907.16 4103,1865.83 4127,1825.5C 4193.87,1705.43 4271.7,1592.76 4360.5,1487.5C 4378.17,1467.63 4396.17,1448.13 4414.5,1429C 4417.23,1426.61 4420.23,1424.61 4423.5,1423C 4425.95,1422.22 4427.62,1423.06 4428.5,1425.5C 4400.11,1504.58 4363.28,1579.25 4318,1649.5C 4245.51,1760.71 4159.68,1860.71 4060.5,1949.5 Z"/></g>
<g><path style="opacity:0.051" fill="#111110" d="M 2854.5,1572.5 C 2854.34,1574.15 2853.67,1575.49 2852.5,1576.5C 2852.23,1574.62 2852.9,1573.29 2854.5,1572.5 Z"/></g>
<g><path style="opacity:0.985" fill="#2a2928" d="M 1744.5,1684.5 C 1762.3,1683.07 1779.64,1685.23 1796.5,1691C 1801.19,1693.02 1805.36,1695.85 1809,1699.5C 1810.98,1704.59 1810.48,1709.42 1807.5,1714C 1799.23,1724.61 1789.89,1734.28 1779.5,1743C 1754.78,1764.72 1728.11,1783.72 1699.5,1800C 1692.95,1803.55 1685.95,1805.39 1678.5,1805.5C 1673.11,1806.73 1669.45,1804.9 1667.5,1800C 1670.93,1769.8 1678.76,1740.97 1691,1713.5C 1698.77,1700.08 1710.27,1691.58 1725.5,1688C 1731.97,1686.81 1738.31,1685.65 1744.5,1684.5 Z"/></g>
<g><path style="opacity:0.992" fill="#2a2928" d="M 3340.5,1908.5 C 3341.91,1908.03 3342.57,1907.03 3342.5,1905.5C 3345.19,1905.34 3347.85,1905.5 3350.5,1906C 3366.33,1916.08 3382.33,1925.92 3398.5,1935.5C 3402.91,1940.41 3406.75,1945.75 3410,1951.5C 3411.13,1959.05 3410.46,1966.38 3408,1973.5C 3393.68,1996.15 3380.68,2019.48 3369,2043.5C 3356.52,2074.46 3345.18,2105.79 3335,2137.5C 3334.16,2139.82 3333.83,2142.15 3334,2144.5C 3388.4,2097.1 3435.73,2043.43 3476,1983.5C 3489.8,1958.75 3502.13,1933.42 3513,1907.5C 3522.07,1882.12 3524.4,1856.12 3520,1829.5C 3518.59,1823.51 3516.42,1817.84 3513.5,1812.5C 3515,1810.17 3516.5,1807.83 3518,1805.5C 3530.22,1816.27 3539.22,1829.27 3545,1844.5C 3551.55,1863.95 3554.22,1883.95 3553,1904.5C 3548.39,1942.83 3538.06,1979.5 3522,2014.5C 3500.64,2059.22 3474.3,2100.89 3443,2139.5C 3405.64,2183.63 3365.14,2224.8 3321.5,2263C 3314.76,2267.4 3307.76,2271.4 3300.5,2275C 3292.76,2277.57 3285.43,2276.73 3278.5,2272.5C 3259.18,2258.35 3242.01,2242.01 3227,2223.5C 3225.55,2220.14 3224.71,2216.64 3224.5,2213C 3227.49,2196.25 3229.66,2179.42 3231,2162.5C 3212.69,2188.1 3194.02,2213.44 3175,2238.5C 3167.01,2247.32 3158.51,2255.66 3149.5,2263.5C 3143.66,2267.25 3137.66,2270.75 3131.5,2274C 3123.63,2277.64 3115.96,2277.31 3108.5,2273C 3090.08,2260.25 3073.58,2245.41 3059,2228.5C 3054.06,2222.34 3052.39,2215.34 3054,2207.5C 3059.34,2160.11 3071.01,2114.44 3089,2070.5C 3101.85,2041.3 3115.85,2012.63 3131,1984.5C 3134.67,1980.17 3138.33,1975.83 3142,1971.5C 3147.57,1960.27 3153.57,1949.27 3160,1938.5C 3163.59,1927.63 3167.09,1916.8 3170.5,1906C 3173.17,1905.33 3175.83,1905.33 3178.5,1906C 3184.36,1910.54 3190.7,1914.21 3197.5,1917C 3206.37,1922.6 3215.37,1927.93 3224.5,1933C 3232.57,1940.22 3237.9,1949.06 3240.5,1959.5C 3239.49,1963.87 3238.32,1968.2 3237,1972.5C 3228.3,1987.19 3219.63,2001.85 3211,2016.5C 3201.56,2035.72 3192.89,2055.39 3185,2075.5C 3176.46,2097.79 3168.8,2120.46 3162,2143.5C 3157.35,2162.09 3153.35,2180.76 3150,2199.5C 3185.34,2161.5 3217.67,2121.17 3247,2078.5C 3273.76,2035.41 3300.1,1992.08 3326,1948.5C 3329.67,1940.82 3333.34,1933.16 3337,1925.5C 3338.7,1919.92 3339.86,1914.25 3340.5,1908.5 Z"/></g>
<g><path style="opacity:0.963" fill="#242321" d="M 4531.5,1841.5 C 4562.17,1841.5 4592.83,1841.5 4623.5,1841.5C 4623.5,1849.17 4623.5,1856.83 4623.5,1864.5C 4612.5,1864.5 4601.5,1864.5 4590.5,1864.5C 4590.5,1895.5 4590.5,1926.5 4590.5,1957.5C 4581.5,1957.5 4572.5,1957.5 4563.5,1957.5C 4563.5,1926.5 4563.5,1895.5 4563.5,1864.5C 4552.83,1864.5 4542.17,1864.5 4531.5,1864.5C 4531.5,1856.83 4531.5,1849.17 4531.5,1841.5 Z"/></g>
<g><path style="opacity:0.004" fill="#201b1b" d="M 4676.5,1842.5 C 4664.92,1842.18 4653.42,1842.51 4642,1843.5C 4641.33,1880.83 4641.33,1918.17 4642,1955.5C 4650.75,1956.48 4659.58,1956.82 4668.5,1956.5C 4659.35,1957.49 4650.01,1957.83 4640.5,1957.5C 4640.5,1918.83 4640.5,1880.17 4640.5,1841.5C 4652.68,1841.17 4664.68,1841.5 4676.5,1842.5 Z"/></g>
<g><path style="opacity:0.974" fill="#242321" d="M 4668.5,1956.5 C 4659.58,1956.82 4650.75,1956.48 4642,1955.5C 4641.33,1918.17 4641.33,1880.83 4642,1843.5C 4653.42,1842.51 4664.92,1842.18 4676.5,1842.5C 4687.36,1862.24 4697.19,1882.57 4706,1903.5C 4715.66,1882.84 4725.49,1862.34 4735.5,1842C 4746.83,1841.5 4758.16,1841.33 4769.5,1841.5C 4769.5,1880.17 4769.5,1918.83 4769.5,1957.5C 4760.83,1957.5 4752.17,1957.5 4743.5,1957.5C 4743.67,1934.83 4743.5,1912.16 4743,1889.5C 4733.25,1909.07 4723.75,1928.74 4714.5,1948.5C 4708.79,1948.83 4703.13,1948.5 4697.5,1947.5C 4687.98,1928.46 4678.48,1909.46 4669,1890.5C 4668.5,1912.5 4668.33,1934.5 4668.5,1956.5 Z"/></g>
<g><path style="opacity:0.991" fill="#2a2928" d="M 1601.5,1851.5 C 1606.45,1852.09 1611.11,1853.59 1615.5,1856C 1625.75,1863.04 1635.92,1870.21 1646,1877.5C 1649.26,1882.37 1652.26,1887.37 1655,1892.5C 1657.21,1902.81 1655.54,1912.48 1650,1921.5C 1623.67,1955.16 1601.67,1991.49 1584,2030.5C 1570.43,2060.8 1557.76,2091.47 1546,2122.5C 1539.85,2141.42 1533.85,2160.42 1528,2179.5C 1527.33,2180.83 1527.33,2182.17 1528,2183.5C 1582.26,2153.59 1631.76,2117.09 1676.5,2074C 1686.24,2073.61 1695.91,2073.28 1705.5,2073C 1671,2110.5 1633.33,2144.5 1592.5,2175C 1564.15,2194.51 1536.15,2214.51 1508.5,2235C 1498.74,2240.61 1488.41,2241.94 1477.5,2239C 1464.36,2229.92 1451.36,2220.59 1438.5,2211C 1433.7,2207.2 1429.2,2203.03 1425,2198.5C 1423.37,2192.2 1423.37,2185.87 1425,2179.5C 1429.66,2161.58 1434.33,2143.58 1439,2125.5C 1452.01,2084.7 1468.34,2045.37 1488,2007.5C 1496.04,1994.05 1503.71,1980.39 1511,1966.5C 1527.32,1942.02 1543.82,1917.68 1560.5,1893.5C 1573.49,1878.84 1587.16,1864.84 1601.5,1851.5 Z"/></g>
<g><path style="opacity:0.345" fill="#151514" d="M 3342.5,1905.5 C 3342.57,1907.03 3341.91,1908.03 3340.5,1908.5C 3340.43,1906.97 3341.09,1905.97 3342.5,1905.5 Z"/></g>
<g><path style="opacity:0.616" fill="#161514" d="M 3489.5,2107.5 C 3489.34,2109.15 3488.67,2110.49 3487.5,2111.5C 3487.23,2109.62 3487.9,2108.29 3489.5,2107.5 Z"/></g>
<g><path style="opacity:0.004" fill="#0a0a0a" d="M 4342.5,2128.5 C 4342.5,2129.83 4341.83,2130.5 4340.5,2130.5C 4340.83,2129.5 4341.5,2128.83 4342.5,2128.5 Z"/></g>
<g><path style="opacity:0.145" fill="#141413" d="M 3553.5,2159.5 C 3553.57,2161.03 3552.91,2162.03 3551.5,2162.5C 3551.43,2160.97 3552.09,2159.97 3553.5,2159.5 Z"/></g>
<g><path style="opacity:0.012" fill="#080908" d="M 1252.5,2186.5 C 1253.83,2187.17 1253.83,2187.17 1252.5,2186.5 Z"/></g>
<g><path style="opacity:0.979" fill="#2a2928" d="M 1252.5,2187.5 C 1240.42,2307.8 1277.75,2409.3 1364.5,2492C 1458.44,2576.09 1568.77,2612.09 1695.5,2600C 1766.69,2594.36 1836.69,2582.02 1905.5,2563C 1962.12,2547.13 2018.12,2529.46 2073.5,2510C 2181.53,2470.25 2289.86,2431.58 2398.5,2394C 2488.7,2367.87 2579.7,2364.53 2671.5,2384C 2762.4,2406.33 2839.23,2451.83 2902,2520.5C 2938.32,2562.18 2968.32,2607.84 2992,2657.5C 2992.67,2658.83 2992.67,2660.17 2992,2661.5C 2938.43,2585.93 2871.93,2524.1 2792.5,2476C 2700.6,2424.9 2602.6,2407.9 2498.5,2425C 2454.17,2432.11 2410.83,2443.11 2368.5,2458C 2259.05,2498.26 2149.05,2536.93 2038.5,2574C 1976.41,2594.61 1913.41,2611.94 1849.5,2626C 1807.28,2633.08 1764.95,2639.41 1722.5,2645C 1678.18,2647.69 1633.85,2648.03 1589.5,2646C 1474.84,2635.93 1381.01,2587.1 1308,2499.5C 1244.52,2414.47 1223.52,2319.47 1245,2214.5C 1246.83,2205.21 1249.33,2196.21 1252.5,2187.5 Z"/></g>
<g><path style="opacity:0.977" fill="#2a2928" d="M 2570.5,2507.5 C 2651.97,2502.63 2729.97,2516.47 2804.5,2549C 2819.83,2556.56 2834.5,2565.22 2848.5,2575C 2887.32,2603.01 2922.82,2634.85 2955,2670.5C 2961.33,2678.83 2967.67,2687.17 2974,2695.5C 2974.75,2696.64 2974.58,2697.64 2973.5,2698.5C 2928.41,2657.97 2878.08,2625.13 2822.5,2600C 2704.39,2544.38 2582.39,2534.04 2456.5,2569C 2414.67,2581.05 2374,2596.05 2334.5,2614C 2247.25,2654.46 2159.58,2694.12 2071.5,2733C 2019.04,2755.4 1966.04,2776.4 1912.5,2796C 1863.13,2812.18 1813.13,2826.18 1762.5,2838C 1718.12,2846.3 1673.46,2852.63 1628.5,2857C 1542.25,2862.35 1460.92,2845.35 1384.5,2806C 1326.35,2774.8 1282.18,2729.97 1252,2671.5C 1232.05,2625.94 1225.05,2578.27 1231,2528.5C 1236.64,2599.97 1266.47,2660.8 1320.5,2711C 1388.32,2769.71 1467.32,2804.38 1557.5,2815C 1594.17,2819.65 1630.83,2819.65 1667.5,2815C 1730.5,2806.73 1792.16,2792.73 1852.5,2773C 1911.18,2753.55 1968.85,2731.55 2025.5,2707C 2114.44,2666.36 2203.44,2626.03 2292.5,2586C 2379.82,2540.61 2472.48,2514.45 2570.5,2507.5 Z"/></g>
</svg>
